<svg version="1.1" id="Layer_1" xmlns="http://www.w3.org/2000/svg" xmlns:xlink="http://www.w3.org/1999/xlink" x="0px" y="0px"
	 width="100%" viewBox="0 0 100 88" enable-background="new 0 0 100 88" xml:space="preserve">
<path fill="#1F1F20" opacity="1.000000" stroke="none" 
	d="
M70.000000,89.000000 
	C46.666672,89.000000 23.833342,89.000000 1.000009,89.000000 
	C1.000006,59.666676 1.000006,30.333351 1.000003,1.000021 
	C34.333317,1.000014 67.666634,1.000014 100.999969,1.000007 
	C100.999977,30.333313 100.999977,59.666626 100.999985,88.999969 
	C90.833336,89.000000 80.666664,89.000000 70.000000,89.000000 
M9.001663,9.958876 
	C9.001663,9.958876 8.909048,10.236234 8.486031,10.530250 
	C8.299883,11.004062 8.113735,11.477874 7.506602,12.519183 
	C7.301685,13.663290 7.096768,14.807396 6.537133,16.622782 
	C6.650627,19.102804 6.764121,21.582825 6.830357,24.730843 
	C7.120559,25.783306 7.410762,26.835768 7.784563,28.465136 
	C7.865983,28.641563 7.947403,28.817993 8.098036,29.701729 
	C10.247717,35.558254 14.229730,39.697559 20.308468,42.746433 
	C21.511124,43.179432 22.713779,43.612431 23.933500,44.624649 
	C24.210443,45.113998 24.487387,45.603348 24.972033,46.962532 
	C24.967001,49.635418 24.961969,52.308300 24.694244,55.621849 
	C24.766897,57.429054 24.839550,59.236259 24.910593,61.710361 
	C25.023907,62.138451 25.137218,62.566544 25.188059,63.658287 
	C25.105822,64.094269 25.023586,64.530243 24.462978,65.135834 
	C24.321873,65.425835 24.180767,65.715836 23.821848,66.683044 
	C23.576677,67.611839 23.331507,68.540627 22.392212,69.209122 
	C17.868244,70.615829 16.956348,74.557182 15.226719,79.211655 
	C21.082373,80.508133 26.451458,81.696884 32.584911,83.291664 
	C40.397346,83.167404 48.209778,83.043144 55.995369,82.979042 
	C55.995369,82.979042 55.940865,82.942062 56.670940,82.955162 
	C57.825409,82.619827 58.979877,82.284492 60.722660,81.571754 
	C62.833679,80.205788 64.944702,78.839821 67.813812,77.789398 
	C74.609734,80.940369 81.489304,81.332962 88.290855,77.993332 
	C90.753654,76.784088 91.921471,74.879204 89.083214,72.285789 
	C87.793144,71.506599 86.503075,70.727402 84.579384,69.565498 
	C84.910301,68.721001 85.446625,67.352303 86.684753,65.681465 
	C87.363190,62.806892 91.029045,59.328911 85.149017,56.861794 
	C85.726051,54.584110 86.303085,52.306427 87.034714,49.418510 
	C84.472672,49.611221 82.329819,49.772400 80.666969,49.246410 
	C80.506828,48.342937 80.346687,47.439465 80.103088,46.483253 
	C80.103088,46.483253 80.048271,46.565361 80.803246,46.582401 
	C80.966682,46.123314 81.130127,45.664230 81.624199,44.863087 
	C81.847603,44.620533 81.975853,44.335205 82.151947,44.117954 
	C82.151947,44.117954 82.332878,44.119236 82.872566,44.163605 
	C85.944847,43.569218 86.938820,42.347904 84.130486,39.252338 
	C84.071426,38.526554 84.012367,37.800766 83.728218,36.432747 
	C81.758530,34.265617 79.788834,32.098488 77.934349,29.109135 
	C80.480583,18.720673 79.181656,12.681928 73.284500,9.335363 
	C72.570274,11.000366 72.093010,12.757412 71.144836,14.206276 
	C67.894844,19.172415 64.479706,24.030466 60.980160,28.384554 
	C60.700081,27.909882 60.420002,27.435209 60.032703,26.386633 
	C59.687046,25.930407 59.341393,25.474178 58.748791,24.396925 
	C56.863453,22.859455 54.978119,21.321985 52.740982,19.344137 
	C52.231506,19.110010 51.722031,18.875885 50.560436,18.237959 
	C44.994694,16.367306 39.496750,16.220991 33.415527,19.046555 
	C28.778555,21.408449 25.472126,24.916439 23.442579,30.116156 
	C23.258894,30.087280 23.075211,30.058407 22.956409,29.284435 
	C22.150433,27.340742 21.534826,25.288425 20.500225,23.475182 
	C18.088543,19.248466 15.475272,15.136777 13.225661,10.498953 
	C12.918808,9.512425 12.611956,8.525898 12.305102,7.539371 
	C11.558009,7.999442 10.810915,8.459514 9.880232,8.927490 
	C9.880232,8.927490 9.834230,9.105399 9.514001,9.199903 
	C9.324673,9.344559 9.229498,9.536032 9.001663,9.958876 
z"/>
<path fill="#567BA9" opacity="1.000000" stroke="none" 
	d="
M53.092785,19.784512 
	C54.978119,21.321985 56.863453,22.859455 58.969185,24.975346 
	C59.506359,26.022690 59.823143,26.491613 60.139923,26.960537 
	C60.420002,27.435209 60.700081,27.909882 60.911007,28.957426 
	C61.561131,33.355225 62.280411,37.180149 62.702980,41.138489 
	C60.651226,41.971546 58.783669,42.479263 57.172264,43.423920 
	C55.505558,44.401001 53.623856,45.516235 52.659710,47.079071 
	C50.798409,50.096161 49.516453,53.470657 47.629311,56.741333 
	C44.186855,54.698215 41.101040,54.343971 37.894905,56.513031 
	C37.287807,55.861710 36.787758,55.438358 36.142895,54.704529 
	C34.993469,52.941021 33.988857,51.488003 32.983025,49.629189 
	C32.222542,42.228256 30.941103,41.740051 24.764330,46.092697 
	C24.487387,45.603348 24.210443,45.113998 24.028681,44.136707 
	C23.773693,43.098667 23.423525,42.548569 22.994173,41.783539 
	C22.759647,41.153210 22.604307,40.737820 22.448967,40.322430 
	C22.246218,40.547398 22.043467,40.772366 21.568920,41.112564 
	C20.824739,41.576344 20.352352,41.924892 19.879967,42.273441 
	C14.229730,39.697559 10.247717,35.558254 8.093266,29.199003 
	C8.073324,28.376350 7.944147,28.107000 7.700964,27.888231 
	C7.410762,26.835768 7.120559,25.783306 7.050361,24.062359 
	C7.144193,20.913082 7.018022,18.432293 6.891851,15.951503 
	C7.096768,14.807396 7.301685,13.663290 7.885412,12.047877 
	C8.479164,11.129792 8.694106,10.683013 8.909048,10.236234 
	C8.909048,10.236234 9.001663,9.958876 9.232323,9.775032 
	C9.611190,9.447969 9.734940,9.286039 9.834230,9.105399 
	C9.834230,9.105399 9.880232,8.927490 10.242754,9.044836 
	C11.384741,9.767617 12.164205,10.373053 12.943668,10.978489 
	C15.475272,15.136777 18.088543,19.248466 20.500225,23.475182 
	C21.534826,25.288425 22.150433,27.340742 22.658649,29.813324 
	C21.988825,31.431763 21.616758,32.521313 21.244692,33.610863 
	C21.739807,33.756992 22.234922,33.903126 22.730040,34.049259 
	C23.148897,32.697144 23.567755,31.345032 23.986614,29.992918 
	C25.472126,24.916439 28.778555,21.408449 34.009109,19.024746 
	C34.907497,20.206348 35.212311,21.409758 35.537125,22.692139 
	C38.880421,22.692139 42.354370,22.890280 45.790394,22.615030 
	C47.734505,22.459291 49.616337,21.526056 51.743401,20.831518 
	C52.337986,20.408186 52.715385,20.096350 53.092785,19.784512 
z"/>
<path fill="#567BA9" opacity="1.000000" stroke="none" 
	d="
M62.999687,41.005077 
	C62.280411,37.180149 61.561131,33.355225 60.984695,29.230015 
	C64.479706,24.030466 67.894844,19.172415 71.144836,14.206276 
	C72.093010,12.757412 72.570274,11.000366 73.284500,9.335363 
	C79.181656,12.681928 80.480583,18.720673 77.649979,29.777845 
	C74.183037,36.844124 70.598854,42.841084 63.068596,44.556080 
	C63.086555,43.182838 63.043121,42.093956 62.999687,41.005077 
z"/>
<path fill="#A30101" opacity="1.000000" stroke="none" 
	d="
M67.055717,77.473854 
	C64.944702,78.839821 62.833679,80.205788 60.053078,81.763870 
	C58.235950,82.284676 57.088406,82.613373 55.940865,82.942062 
	C55.940865,82.942062 55.995369,82.979042 55.541409,82.865913 
	C47.331814,82.797073 39.576176,82.841354 31.820541,82.885635 
	C26.451458,81.696884 21.082373,80.508133 15.226719,79.211655 
	C16.956348,74.557182 17.868244,70.615829 22.840179,69.642715 
	C25.217644,71.706009 27.019539,73.537773 29.134686,74.873489 
	C30.080910,75.471031 31.655647,75.073303 33.031921,75.393990 
	C33.229076,75.811676 33.339466,75.962616 33.621449,76.399185 
	C37.548416,78.871521 41.351215,79.459648 45.569450,77.034927 
	C47.280342,76.473282 48.665489,75.901230 50.534626,75.247131 
	C56.168953,76.543304 59.616291,72.461433 63.946827,71.486404 
	C64.997993,73.713341 66.026855,75.593597 67.055717,77.473854 
z"/>
<path fill="#212224" opacity="1.000000" stroke="none" 
	d="
M63.924526,71.139732 
	C59.616291,72.461433 56.168953,76.543304 50.819313,74.885376 
	C52.261005,73.957909 53.964119,73.430771 55.524677,72.626877 
	C56.946930,71.894218 59.260921,70.979492 59.378117,69.941376 
	C60.067078,63.838680 60.836517,57.624680 60.321198,51.554962 
	C60.045288,48.305195 60.255852,46.365131 63.007195,44.840443 
	C70.598854,42.841084 74.183037,36.844124 77.592377,30.188957 
	C79.788834,32.098488 81.758530,34.265617 83.554741,36.742241 
	C82.251274,37.108162 81.112617,37.282650 79.992798,37.200481 
	C75.276436,36.854416 74.272491,38.229435 75.880112,43.435875 
	C75.923660,45.225277 75.916664,46.604126 75.692047,48.154869 
	C75.289146,48.847431 75.103867,49.368092 74.577057,49.900700 
	C72.597359,49.403908 70.959175,48.895176 68.766426,48.214218 
	C68.886864,50.659924 68.973938,52.428173 68.755600,54.051186 
	C64.972298,58.027306 64.846207,63.842606 68.288834,67.456451 
	C68.422447,67.403267 68.631790,67.206017 68.716370,67.525574 
	C68.875626,68.277534 68.950310,68.709938 68.849335,69.286697 
	C68.396362,69.569061 68.165840,69.762749 67.626236,70.035934 
	C66.155067,70.419739 65.039795,70.779732 63.924526,71.139732 
z"/>
<path fill="#567BA8" opacity="1.000000" stroke="none" 
	d="
M33.449856,76.113564 
	C33.339466,75.962616 33.229076,75.811676 32.952072,75.066467 
	C29.870188,71.650070 26.954924,68.827957 24.039661,66.005836 
	C24.180767,65.715836 24.321873,65.425835 24.880184,65.205231 
	C25.819510,65.482933 26.341631,65.691231 26.863750,65.899536 
	C26.326012,64.931236 25.788271,63.962933 25.250532,62.994633 
	C25.137218,62.566544 25.023907,62.138451 25.095654,61.067970 
	C25.172791,58.610783 25.064863,56.795982 24.956936,54.981186 
	C24.961969,52.308300 24.967001,49.635418 24.868181,46.527615 
	C30.941103,41.740051 32.222542,42.228256 32.665222,49.517609 
	C30.930868,49.249710 29.513086,48.687599 27.138842,47.746273 
	C28.631042,53.564270 32.111954,54.755363 36.287712,55.015011 
	C36.787758,55.438358 37.287807,55.861710 37.633972,56.595718 
	C37.323990,57.592030 37.167885,58.277683 37.149284,59.302101 
	C38.529377,64.114326 39.771965,68.587784 41.034599,73.319214 
	C39.459900,77.241562 36.362728,76.401268 33.449856,76.113564 
z"/>
<path fill="#6BD2CB" opacity="1.000000" stroke="none" 
	d="
M68.155212,67.509636 
	C64.846207,63.842606 64.972298,58.027306 68.718536,54.341164 
	C70.408005,58.385101 71.605850,58.408836 74.870041,54.971706 
	C75.850357,55.325272 76.565971,55.594826 77.893799,55.951057 
	C79.321327,56.068211 80.136658,56.098694 81.091003,56.377323 
	C82.516998,57.013897 83.803986,57.402328 85.090965,57.790760 
	C91.029045,59.328911 87.363190,62.806892 86.100113,65.700523 
	C84.712402,66.036583 83.252106,66.283234 83.209465,66.681633 
	C82.844215,70.093964 80.610069,70.406822 77.744095,70.158600 
	C77.548492,70.134598 77.153389,70.144127 76.912811,69.886696 
	C75.058594,69.771019 73.444954,69.912766 71.635277,69.935364 
	C71.181976,69.604027 71.062492,69.331383 71.085724,68.970001 
	C71.090660,68.941727 71.034454,68.933861 71.360168,68.753586 
	C71.411606,67.722672 71.137337,66.872047 70.863068,66.021416 
	C69.960449,66.517487 69.057831,67.013557 68.155212,67.509636 
z"/>
<path fill="#166939" opacity="1.000000" stroke="none" 
	d="
M63.946827,71.486404 
	C65.039795,70.779732 66.155067,70.419739 67.713570,70.378639 
	C68.669601,71.884125 68.957977,73.267151 69.768494,74.193161 
	C70.381332,74.893333 71.661079,75.009796 72.644028,75.386032 
	C72.905586,74.293427 73.167145,73.200813 73.658279,71.874611 
	C74.291435,71.489960 74.695030,71.338905 75.355919,71.337280 
	C76.400139,71.608269 77.187073,71.729828 78.070694,72.000732 
	C78.167389,72.150085 78.410049,72.410324 78.218758,72.690125 
	C77.856728,73.808472 77.685997,74.647018 77.515259,75.485573 
	C78.419395,75.541321 79.637077,75.991837 80.164330,75.573067 
	C81.372803,74.613243 82.244347,73.229195 83.573853,72.117737 
	C85.549332,72.410141 87.203636,72.602203 88.857948,72.794266 
	C91.921471,74.879204 90.753654,76.784088 88.290855,77.993332 
	C81.489304,81.332962 74.609734,80.940369 67.434769,77.631622 
	C66.026855,75.593597 64.997993,73.713341 63.946827,71.486404 
z"/>
<path fill="#085086" opacity="1.000000" stroke="none" 
	d="
M51.526218,20.943014 
	C49.616337,21.526056 47.734505,22.459291 45.790394,22.615030 
	C42.354370,22.890280 38.880421,22.692139 35.537125,22.692139 
	C35.212311,21.409758 34.907497,20.206348 34.355995,18.943884 
	C39.496750,16.220991 44.994694,16.367306 50.660789,18.547237 
	C51.016167,19.552017 51.271194,20.247515 51.526218,20.943014 
z"/>
<path fill="#857E48" opacity="1.000000" stroke="none" 
	d="
M75.829552,43.025322 
	C74.272491,38.229435 75.276436,36.854416 79.992798,37.200481 
	C81.112617,37.282650 82.251274,37.108162 83.667290,37.063354 
	C84.012367,37.800766 84.071426,38.526554 83.945564,39.886162 
	C83.284721,41.719738 82.808800,42.919487 82.332878,44.119236 
	C82.332878,44.119236 82.151947,44.117954 81.902794,43.821400 
	C80.372101,43.359566 79.090561,43.194286 77.643219,43.028984 
	C77.477425,43.028965 77.144913,43.009674 76.815811,42.991997 
	C76.267662,42.991314 76.048607,43.008316 75.829552,43.025322 
z"/>
<path fill="#E05379" opacity="1.000000" stroke="none" 
	d="
M85.119995,57.326279 
	C83.803986,57.402328 82.516998,57.013897 81.090958,56.028618 
	C80.560303,54.347954 80.168709,53.264145 79.810898,51.820114 
	C79.919334,50.985271 79.993996,50.510647 80.120087,50.035660 
	C80.171524,50.035294 80.186966,49.933582 80.186966,49.933582 
	C82.329819,49.772400 84.472672,49.611221 87.034714,49.418510 
	C86.303085,52.306427 85.726051,54.584110 85.119995,57.326279 
z"/>
<path fill="#5279A6" opacity="1.000000" stroke="none" 
	d="
M23.930756,66.344437 
	C26.954924,68.827957 29.870188,71.650070 32.865303,74.799713 
	C31.655647,75.073303 30.080910,75.471031 29.134686,74.873489 
	C27.019539,73.537773 25.217644,71.706009 23.187243,69.772858 
	C23.331507,68.540627 23.576677,67.611839 23.930756,66.344437 
z"/>
<path fill="#436D6E" opacity="1.000000" stroke="none" 
	d="
M88.970581,72.540031 
	C87.203636,72.602203 85.549332,72.410141 83.343620,71.905418 
	C81.331497,71.865280 79.870773,72.137802 78.410049,72.410324 
	C78.410049,72.410324 78.167389,72.150085 78.076416,71.724045 
	C77.970184,70.926201 77.954941,70.554405 77.939690,70.182610 
	C80.610069,70.406822 82.844215,70.093964 83.209465,66.681633 
	C83.252106,66.283234 84.712402,66.036583 85.749222,65.851593 
	C85.446625,67.352303 84.910301,68.721001 84.579384,69.565498 
	C86.503075,70.727402 87.793144,71.506599 88.970581,72.540031 
z"/>
<path fill="#1E0809" opacity="1.000000" stroke="none" 
	d="
M32.202728,83.088654 
	C39.576176,82.841354 47.331814,82.797073 55.554832,82.835838 
	C48.209778,83.043144 40.397346,83.167404 32.202728,83.088654 
z"/>
<path fill="#557AA8" opacity="1.000000" stroke="none" 
	d="
M6.714492,16.287142 
	C7.018022,18.432293 7.144193,20.913082 7.073990,23.728359 
	C6.764121,21.582825 6.650627,19.102804 6.714492,16.287142 
z"/>
<path fill="#557AA8" opacity="1.000000" stroke="none" 
	d="
M23.714596,30.054537 
	C23.567755,31.345032 23.148897,32.697144 22.730040,34.049259 
	C22.234922,33.903126 21.739807,33.756992 21.244692,33.610863 
	C21.616758,32.521313 21.988825,31.431763 22.626209,30.185873 
	C23.075211,30.058407 23.258894,30.087280 23.714596,30.054537 
z"/>
<path fill="#323224" opacity="1.000000" stroke="none" 
	d="
M82.602722,44.141418 
	C82.808800,42.919487 83.284721,41.719738 83.947479,40.250381 
	C86.938820,42.347904 85.944847,43.569218 82.602722,44.141418 
z"/>
<path fill="#5279A6" opacity="1.000000" stroke="none" 
	d="
M24.825590,55.301517 
	C25.064863,56.795982 25.172791,58.610783 25.096458,60.734520 
	C24.839550,59.236259 24.766897,57.429054 24.825590,55.301517 
z"/>
<path fill="#557AA8" opacity="1.000000" stroke="none" 
	d="
M23.073357,41.998474 
	C23.423525,42.548569 23.773693,43.098667 24.020149,43.847099 
	C22.713779,43.612431 21.511124,43.179432 20.094217,42.509937 
	C20.352352,41.924892 20.824739,41.576344 21.672634,41.269897 
	C22.389879,41.540829 22.731619,41.769650 23.073357,41.998474 
z"/>
<path fill="#557AA8" opacity="1.000000" stroke="none" 
	d="
M13.084665,10.738721 
	C12.164205,10.373053 11.384741,9.767617 10.334549,9.040882 
	C10.810915,8.459514 11.558009,7.999442 12.305102,7.539371 
	C12.611956,8.525898 12.918808,9.512425 13.084665,10.738721 
z"/>
<path fill="#A49C58" opacity="1.000000" stroke="none" 
	d="
M77.809021,43.029007 
	C79.090561,43.194286 80.372101,43.359566 81.831291,43.765976 
	C81.975853,44.335205 81.847603,44.620533 81.127060,45.010956 
	C80.413727,45.109489 80.197540,45.060150 79.828667,44.894135 
	C79.423454,45.174156 79.170921,45.570858 78.715332,45.976944 
	C78.512276,45.986324 78.107277,45.950878 78.048317,45.588387 
	C77.929245,44.493595 77.869133,43.761303 77.809021,43.029007 
z"/>
<path fill="#86814A" opacity="1.000000" stroke="none" 
	d="
M78.107285,45.950878 
	C78.107277,45.950878 78.512276,45.986324 78.900551,46.123611 
	C79.570648,46.409431 79.869888,46.501129 80.186546,46.535992 
	C80.346687,47.439465 80.506828,48.342937 80.426971,49.589996 
	C80.186966,49.933582 80.171524,50.035294 79.775574,50.032036 
	C78.920662,50.013966 78.461693,49.999157 78.009521,49.775024 
	C78.016312,49.565704 78.026405,49.146965 78.036774,48.873425 
	C78.043999,48.418499 78.040840,48.237118 78.041138,47.704681 
	C78.065491,46.886047 78.086388,46.418461 78.107285,45.950878 
z"/>
<path fill="#5279A6" opacity="1.000000" stroke="none" 
	d="
M25.219296,63.326462 
	C25.788271,63.962933 26.326012,64.931236 26.863750,65.899536 
	C26.341631,65.691231 25.819510,65.482933 25.119370,65.120422 
	C25.023586,64.530243 25.105822,64.094269 25.219296,63.326462 
z"/>
<path fill="#567BA9" opacity="1.000000" stroke="none" 
	d="
M51.743401,20.831518 
	C51.271194,20.247515 51.016167,19.552017 50.986847,18.749138 
	C51.722031,18.875885 52.231506,19.110010 52.916885,19.564323 
	C52.715385,20.096350 52.337986,20.408186 51.743401,20.831518 
z"/>
<path fill="#1E0809" opacity="1.000000" stroke="none" 
	d="
M56.305901,82.948608 
	C57.088406,82.613373 58.235950,82.284676 59.758919,81.952568 
	C58.979877,82.284492 57.825409,82.619827 56.305901,82.948608 
z"/>
<path fill="#4D4528" opacity="1.000000" stroke="none" 
	d="
M80.144821,46.509621 
	C79.869888,46.501129 79.570648,46.409431 79.103607,46.114227 
	C79.170921,45.570858 79.423454,45.174156 79.814644,45.284088 
	C79.984970,46.048939 80.016624,46.307152 80.048271,46.565361 
	C80.048271,46.565361 80.103088,46.483253 80.144821,46.509621 
z"/>
<path fill="#567BA9" opacity="1.000000" stroke="none" 
	d="
M60.086311,26.673584 
	C59.823143,26.491613 59.506359,26.022690 59.092659,25.285858 
	C59.341393,25.474178 59.687046,25.930407 60.086311,26.673584 
z"/>
<path fill="#557AA8" opacity="1.000000" stroke="none" 
	d="
M8.697539,10.383242 
	C8.694106,10.683013 8.479164,11.129792 8.095905,11.764129 
	C8.113735,11.477874 8.299883,11.004062 8.697539,10.383242 
z"/>
<path fill="#857E48" opacity="1.000000" stroke="none" 
	d="
M80.425758,46.573883 
	C80.016624,46.307152 79.984970,46.048939 79.967331,45.400764 
	C80.197540,45.060150 80.413727,45.109489 80.961739,45.181984 
	C81.130127,45.664230 80.966682,46.123314 80.425758,46.573883 
z"/>
<path fill="#557AA8" opacity="1.000000" stroke="none" 
	d="
M9.674116,9.152651 
	C9.734940,9.286039 9.611190,9.447969 9.345731,9.682756 
	C9.229498,9.536032 9.324673,9.344559 9.674116,9.152651 
z"/>
<path fill="#557AA8" opacity="1.000000" stroke="none" 
	d="
M7.742764,28.176683 
	C7.944147,28.107000 8.073324,28.376350 8.058660,28.845350 
	C7.947403,28.817993 7.865983,28.641563 7.742764,28.176683 
z"/>
<path fill="#5278A2" opacity="1.000000" stroke="none" 
	d="
M63.068596,44.556080 
	C60.255852,46.365131 60.045288,48.305195 60.321198,51.554962 
	C60.836517,57.624680 60.067078,63.838680 59.378117,69.941376 
	C59.260921,70.979492 56.946930,71.894218 55.524677,72.626877 
	C53.964119,73.430771 52.261005,73.957909 50.335323,74.967407 
	C48.665489,75.901230 47.280342,76.473282 45.382805,76.764153 
	C44.558147,75.499275 44.245888,74.515579 43.965576,73.094421 
	C45.654575,68.091461 47.311623,63.525974 48.946983,58.635277 
	C48.614967,57.772369 48.304638,57.234676 47.994308,56.696980 
	C49.516453,53.470657 50.798409,50.096161 52.659710,47.079071 
	C53.623856,45.516235 55.505558,44.401001 57.172264,43.423920 
	C58.783669,42.479263 60.651226,41.971546 62.702980,41.138489 
	C63.043121,42.093956 63.086555,43.182838 63.068596,44.556080 
M56.184685,47.135681 
	C56.211395,47.466022 56.238102,47.796368 56.264812,48.126713 
	C56.645966,47.907585 57.027119,47.688457 57.408272,47.469326 
	C57.147133,47.325569 56.885998,47.181812 56.184685,47.135681 
z"/>
<path fill="#18324D" opacity="1.000000" stroke="none" 
	d="
M47.629307,56.741333 
	C48.304638,57.234676 48.614967,57.772369 48.541340,58.667587 
	C44.442184,59.004517 40.726982,58.983929 37.011780,58.963337 
	C37.167885,58.277683 37.323990,57.592030 37.741024,56.823692 
	C41.101040,54.343971 44.186855,54.698215 47.629307,56.741333 
z"/>
<path fill="#67C0DF" opacity="1.000000" stroke="none" 
	d="
M36.142895,54.704529 
	C32.111954,54.755363 28.631042,53.564270 27.138842,47.746273 
	C29.513086,48.687599 30.930868,49.249710 32.666451,49.923401 
	C33.988857,51.488003 34.993469,52.941021 36.142895,54.704529 
z"/>
<path fill="#1F1F20" opacity="1.000000" stroke="none" 
	d="
M22.994171,41.783539 
	C22.731619,41.769650 22.389879,41.540829 21.944427,41.154671 
	C22.043467,40.772366 22.246218,40.547398 22.448967,40.322430 
	C22.604307,40.737820 22.759647,41.153210 22.994171,41.783539 
z"/>
<path fill="#2B212F" opacity="1.000000" stroke="none" 
	d="
M43.933628,73.531891 
	C44.245888,74.515579 44.558147,75.499275 45.057056,76.753738 
	C41.351215,79.459648 37.548416,78.871521 33.621449,76.399185 
	C36.362728,76.401268 39.459900,77.241562 41.407490,73.332443 
	C42.484760,73.235779 43.209194,73.383835 43.933628,73.531891 
z"/>
<path fill="#E1557C" opacity="1.000000" stroke="none" 
	d="
M74.605354,54.887699 
	C71.605850,58.408836 70.408005,58.385101 69.023949,54.486401 
	C68.973938,52.428173 68.886864,50.659924 68.766426,48.214218 
	C70.959175,48.895176 72.597359,49.403908 74.858475,50.043831 
	C76.053139,50.783344 76.624863,51.391678 77.148941,52.215340 
	C77.101311,52.430664 77.075890,52.871632 77.016418,52.889793 
	C76.956955,52.907955 76.838707,52.946465 76.562721,53.063492 
	C75.726273,53.749580 75.165817,54.318638 74.605354,54.887699 
z"/>
<path fill="#69CBC5" opacity="1.000000" stroke="none" 
	d="
M73.428711,72.108208 
	C73.167145,73.200813 72.905586,74.293427 72.644028,75.386032 
	C71.661079,75.009796 70.381332,74.893333 69.768494,74.193161 
	C68.957977,73.267151 68.669601,71.884125 68.069458,70.354828 
	C68.165840,69.762749 68.396362,69.569061 68.845612,69.238342 
	C69.017555,69.045624 68.920792,69.052910 68.985092,69.371674 
	C70.009499,70.157341 70.969597,70.624252 72.081375,71.269012 
	C72.631599,71.667313 73.030159,71.887764 73.428711,72.108208 
z"/>
<path fill="#867C44" opacity="1.000000" stroke="none" 
	d="
M77.196579,52.000011 
	C76.624863,51.391678 76.053139,50.783344 75.199997,50.031883 
	C75.103867,49.368092 75.289146,48.847431 75.953735,48.165386 
	C76.607529,48.009201 76.782021,48.014397 76.983963,47.946293 
	C77.011414,47.872997 77.165154,47.843521 77.276909,48.079765 
	C77.601242,48.592995 77.813828,48.869980 78.026405,49.146965 
	C78.026405,49.146965 78.016312,49.565704 77.951744,50.042950 
	C77.656975,51.013466 77.426781,51.506741 77.196579,52.000011 
z"/>
<path fill="#672C1F" opacity="1.000000" stroke="none" 
	d="
M68.288834,67.456451 
	C69.057831,67.013557 69.960449,66.517487 70.863068,66.021416 
	C71.137337,66.872047 71.411606,67.722672 71.296738,68.415497 
	C70.149002,67.907135 69.390396,67.556572 68.631790,67.206017 
	C68.631790,67.206017 68.422447,67.403267 68.288834,67.456451 
z"/>
<path fill="#B5AE61" opacity="1.000000" stroke="none" 
	d="
M76.956505,48.019588 
	C76.782021,48.014397 76.607529,48.009201 76.171341,47.993492 
	C75.916664,46.604126 75.923660,45.225277 75.880112,43.435875 
	C76.048607,43.008316 76.267662,42.991314 76.787216,43.408295 
	C77.043983,45.234715 77.000244,46.627151 76.956505,48.019588 
z"/>
<path fill="#A7814D" opacity="1.000000" stroke="none" 
	d="
M68.716370,67.525574 
	C69.390396,67.556572 70.149002,67.907135 70.971031,68.595779 
	C71.034454,68.933861 71.090660,68.941727 70.724304,68.977585 
	C69.878891,69.026596 69.399841,69.039757 68.920792,69.052910 
	C68.920792,69.052910 69.017555,69.045624 69.021278,69.093979 
	C68.950310,68.709938 68.875626,68.277534 68.716370,67.525574 
z"/>
<path fill="#64BDDA" opacity="1.000000" stroke="none" 
	d="
M43.965576,73.094421 
	C43.209194,73.383835 42.484760,73.235779 41.387436,73.074478 
	C39.771965,68.587784 38.529377,64.114326 37.149284,59.302101 
	C40.726982,58.983929 44.442184,59.004517 48.563026,58.992798 
	C47.311623,63.525974 45.654575,68.091461 43.965576,73.094421 
z"/>
<path fill="#745F61" opacity="1.000000" stroke="none" 
	d="
M73.658279,71.874611 
	C73.030159,71.887764 72.631599,71.667313 72.071327,71.008583 
	C71.883507,70.398361 71.857414,70.226433 71.831314,70.054512 
	C73.444954,69.912766 75.058594,69.771019 76.695923,70.085983 
	C76.179291,70.757744 75.638962,70.972801 75.098633,71.187851 
	C74.695030,71.338905 74.291435,71.489960 73.658279,71.874611 
z"/>
<path fill="#56383E" opacity="1.000000" stroke="none" 
	d="
M79.777115,52.180336 
	C80.168709,53.264145 80.560303,54.347954 80.951942,55.780472 
	C80.136658,56.098694 79.321327,56.068211 78.133377,55.737648 
	C77.453400,54.607197 77.146057,53.776829 76.838715,52.946465 
	C76.838707,52.946465 76.956955,52.907955 77.294708,52.863686 
	C78.347343,52.606388 79.062233,52.393360 79.777115,52.180336 
z"/>
<path fill="#BE4E72" opacity="1.000000" stroke="none" 
	d="
M76.562729,53.063492 
	C77.146057,53.776829 77.453400,54.607197 77.521164,55.650974 
	C76.565971,55.594826 75.850357,55.325272 74.870041,54.971706 
	C75.165817,54.318638 75.726273,53.749580 76.562729,53.063492 
z"/>
<path fill="#314240" opacity="1.000000" stroke="none" 
	d="
M71.635277,69.935364 
	C71.857414,70.226433 71.883507,70.398361 71.919647,70.830727 
	C70.969597,70.624252 70.009499,70.157341 68.985092,69.371674 
	C69.399841,69.039757 69.878891,69.026596 70.719360,69.005859 
	C71.062492,69.331383 71.181976,69.604027 71.635277,69.935364 
z"/>
<path fill="#3B6965" opacity="1.000000" stroke="none" 
	d="
M75.355919,71.337288 
	C75.638962,70.972801 76.179291,70.757744 76.936508,70.343414 
	C77.153389,70.144127 77.548492,70.134598 77.744095,70.158600 
	C77.954941,70.554405 77.970184,70.926201 77.979721,71.574692 
	C77.187073,71.729828 76.400139,71.608269 75.355919,71.337288 
z"/>
<path fill="#6BCFCA" opacity="1.000000" stroke="none" 
	d="
M78.218758,72.690125 
	C79.870773,72.137802 81.331497,71.865280 83.022461,71.805069 
	C82.244347,73.229195 81.372803,74.613243 80.164330,75.573067 
	C79.637077,75.991837 78.419395,75.541321 77.515259,75.485573 
	C77.685997,74.647018 77.856728,73.808472 78.218758,72.690125 
z"/>
<path fill="#4A4426" opacity="1.000000" stroke="none" 
	d="
M76.983963,47.946293 
	C77.000244,46.627151 77.043983,45.234715 77.116318,43.425976 
	C77.144913,43.009674 77.477425,43.028965 77.643219,43.028984 
	C77.869133,43.761303 77.929245,44.493595 78.048325,45.588387 
	C78.086388,46.418461 78.065491,46.886047 77.821587,47.656830 
	C77.598572,47.960030 77.165154,47.843521 77.165154,47.843521 
	C77.165154,47.843521 77.011414,47.872997 76.983963,47.946293 
z"/>
<path fill="#726B3B" opacity="1.000000" stroke="none" 
	d="
M79.810898,51.820114 
	C79.062233,52.393360 78.347343,52.606388 77.354172,52.845524 
	C77.075890,52.871632 77.101311,52.430664 77.148941,52.215340 
	C77.426781,51.506741 77.656975,51.013466 77.944946,50.252270 
	C78.461693,49.999157 78.920662,50.013966 79.724136,50.032402 
	C79.993996,50.510647 79.919334,50.985271 79.810898,51.820114 
z"/>
<path fill="#726B3B" opacity="1.000000" stroke="none" 
	d="
M77.276909,48.079765 
	C77.165154,47.843521 77.598572,47.960030 77.818130,48.007881 
	C78.040840,48.237118 78.043999,48.418499 78.036774,48.873425 
	C77.813828,48.869980 77.601242,48.592995 77.276909,48.079765 
z"/>
<path fill="#2C4555" opacity="1.000000" stroke="none" 
	d="
M56.404774,47.086868 
	C56.885998,47.181812 57.147133,47.325569 57.408272,47.469330 
	C57.027119,47.688457 56.645966,47.907585 56.264812,48.126709 
	C56.238102,47.796368 56.211395,47.466022 56.404774,47.086868 
z"/>
</svg>